<svg width="20" height="20" viewBox="0 0 20 20" fill="none" xmlns="http://www.w3.org/2000/svg">
<g clip-path="url(#clip0)">
<path d="M3.26477 6.53345H0.65297C0.293907 6.53345 0 6.82587 0 7.18638V18.9395C0 19.2999 0.292618 19.5924 0.65297 19.5924H3.26477C3.62512 19.5924 3.91774 19.2998 3.91774 18.9395V7.18638C3.91774 6.82587 3.6238 6.53345 3.26477 6.53345Z" fill="#0887BD"/>
<path d="M18.3698 6.53345C18.2647 6.51564 13.341 6.53345 13.341 6.53345L14.0287 4.6572C14.5032 3.36134 14.196 1.3827 12.8793 0.679263C12.4506 0.4502 11.8516 0.335161 11.3687 0.456724C11.0918 0.526411 10.8484 0.709771 10.7033 0.955435C10.5364 1.23798 10.5537 1.56778 10.4943 1.88106C10.3436 2.67567 9.96813 3.43118 9.38668 3.99825C8.37293 4.98697 5.22375 7.83932 5.22375 7.83932V18.2866H16.1063C17.5747 18.2875 18.5371 16.6476 17.8128 15.3667C18.6761 14.8138 18.9714 13.6491 18.4658 12.7549C19.3291 12.202 19.6244 11.0373 19.1188 10.1431C20.6084 9.18909 20.1104 6.82783 18.3698 6.53345Z" fill="#0887BD"/>
</g>
<defs>
<clipPath id="clip0">
<rect width="20" height="20" fill="white"/>
</clipPath>
</defs>
</svg>
