<svg width="0" height="0" class="hidden">
  <symbol fill="none" xmlns="http://www.w3.org/2000/svg" viewBox="0 0 30 30" id="ru-flags">
    <path d="M27.753 5.172H2.247A2.247 2.247 0 000 7.42v4.305h30V7.42a2.247 2.247 0 00-2.247-2.247z" fill="#F5F5F5"></path>
    <path d="M0 22.58a2.247 2.247 0 002.247 2.248h25.506A2.247 2.247 0 0030 22.58v-4.305H0v4.305z" fill="#FF4B55"></path>
    <path d="M30 11.724H0v6.551h30v-6.551z" fill="#41479B"></path>
  </symbol>
  <symbol fill="none" xmlns="http://www.w3.org/2000/svg" viewBox="0 0 30 30" id="uk-flags">
    <path d="M0 22.58a2.247 2.247 0 002.247 2.248h25.506A2.247 2.247 0 0030 22.58V15H0v7.58z" fill="#FFE15A"></path>
    <path d="M27.753 5.172H2.247A2.247 2.247 0 000 7.42V15h30V7.42a2.247 2.247 0 00-2.247-2.248z" fill="#4173CD"></path>
  </symbol>
</svg>